<?xml version="1.0" encoding="UTF-8"?>
<svg version="1.1" xmlns="http://www.w3.org/2000/svg" width="16" height="16">
<path d="M0 0 C3.35915158 1.43963639 5.71624938 3.12416589 8 6 C8.10446693 9.23847472 6.72556776 10.30961586 4.5625 12.75 C2 15 2 15 0 15 C0.59927826 11.64404172 1.84622436 9.62198774 4 7 C3.34 6.401875 2.68 5.80375 2 5.1875 C0 3 0 3 0 0 Z " fill="#535353" transform="translate(1,1)"/>
<path d="M0 0 C2.97 0 5.94 0 9 0 C8.67 0.99 8.34 1.98 8 3 C5.36 3 2.72 3 0 3 C0 2.01 0 1.02 0 0 Z " fill="#626262" transform="translate(7,13)"/>
</svg>
